<svg xmlns="http://www.w3.org/2000/svg" viewBox="0 0 400 300" width="400" height="300">
  <defs>
    <linearGradient id="g6bg" x1="0%" y1="0%" x2="100%" y2="100%">
      <stop offset="0%" stop-color="#fdf0ff"/>
      <stop offset="100%" stop-color="#e0b8f8"/>
    </linearGradient>
  </defs>
  <rect width="400" height="300" fill="url(#g6bg)"/>
  <circle cx="318" cy="56"  r="70" fill="#c060d8" opacity="0.12"/>
  <circle cx="75"  cy="238" r="58" fill="#ecd4f8"  opacity="0.2"/>
  <!-- Research / paper scene -->
  <rect x="80"  y="68"  width="240" height="162" rx="12" fill="white" opacity="0.92" stroke="#e0c0f0" stroke-width="1.5"/>
  <!-- Paper -->
  <rect x="100" y="82"  width="200" height="140" rx="8" fill="#fdf8ff" stroke="#e0c0f0" stroke-width="1"/>
  <!-- Lines simulating text -->
  <rect x="116" y="98"  width="168" height="7" rx="3" fill="#c060d8" opacity="0.3"/>
  <rect x="116" y="111" width="130" height="5" rx="2" fill="#e0c0f0" opacity="0.6"/>
  <rect x="116" y="122" width="150" height="5" rx="2" fill="#e0c0f0" opacity="0.55"/>
  <rect x="116" y="133" width="100" height="5" rx="2" fill="#e0c0f0" opacity="0.5"/>
  <!-- Divider -->
  <rect x="116" y="145" width="168" height="1.5" fill="#e0c0f0"/>
  <rect x="116" y="153" width="80"  height="5" rx="2" fill="#c060d8" opacity="0.3"/>
  <rect x="116" y="164" width="168" height="5" rx="2" fill="#e0c0f0" opacity="0.5"/>
  <rect x="116" y="175" width="140" height="5" rx="2" fill="#e0c0f0" opacity="0.45"/>
  <rect x="116" y="186" width="120" height="5" rx="2" fill="#e0c0f0" opacity="0.4"/>
  <!-- Bookmark corner -->
  <polygon points="268,82 288,82 288,108" fill="#c060d8" opacity="0.25"/>
  <!-- Floating emoji -->
  <text x="338" y="140" font-family="Arial,sans-serif" font-size="22" text-anchor="middle">📄</text>
  <text x="62"  y="130" font-family="Arial,sans-serif" font-size="22" text-anchor="middle">📝</text>
  <text x="200" y="258" font-family="'Plus Jakarta Sans',Arial,sans-serif" font-size="14" fill="#8020b0" text-anchor="middle" font-weight="700">Nghiên cứu &amp; Xuất bản</text>
  <text x="200" y="276" font-family="Arial,sans-serif" font-size="11" fill="#a050c0" text-anchor="middle">Bài báo khoa học</text>
</svg>
