<svg xmlns="http://www.w3.org/2000/svg" viewBox="0 0 400 220" width="400" height="220">
  <rect width="400" height="220" fill="#fdf0ff" rx="0"/>
  <circle cx="350" cy="50"  r="65" fill="#d8c8f0" opacity="0.3"/>
  <circle cx="50"  cy="170" r="45" fill="#e8d8f8" opacity="0.35"/>
  <rect x="110" y="45"  width="180" height="130" rx="14" fill="white" stroke="#d8c8f0" stroke-width="1.5"/>
  <rect x="110" y="45"  width="180" height="36"  rx="14" fill="#7040c0"/>
  <rect x="110" y="69"  width="180" height="12"  fill="#7040c0"/>
  <circle cx="130" cy="63" r="5" fill="white" opacity="0.5"/>
  <circle cx="145" cy="63" r="5" fill="white" opacity="0.5"/>
  <rect x="158" y="58" width="96"  height="10" rx="5" fill="rgba(255,255,255,0.2)"/>
  <rect x="126" y="92"  width="148" height="8" rx="4" fill="#d8c8f0"/>
  <rect x="126" y="106" width="110" height="6" rx="3" fill="#d8c8f0" opacity="0.7"/>
  <rect x="126" y="118" width="130" height="6" rx="3" fill="#d8c8f0" opacity="0.6"/>
  <rect x="126" y="130" width="95"  height="6" rx="3" fill="#d8c8f0" opacity="0.5"/>
  <rect x="126" y="146" width="148" height="18" rx="7" fill="#7040c0" opacity="0.12"/>
  <text x="200" y="159" font-family="Arial,sans-serif" font-size="9" fill="#7040c0" text-anchor="middle" font-weight="600">CMS Platform</text>
  <circle cx="330" cy="70"  r="26" fill="#7040c0" opacity="0.1"/>
  <text x="330" y="78"  font-family="Arial,sans-serif" font-size="20" fill="#7040c0" text-anchor="middle">📝</text>
  <circle cx="70"  cy="150" r="26" fill="#d8c8f0" opacity="0.2"/>
  <text x="70"  y="158" font-family="Arial,sans-serif" font-size="20" fill="#7040c0" text-anchor="middle">✏️</text>
</svg>
