<svg xmlns="http://www.w3.org/2000/svg" viewBox="0 0 400 220" width="400" height="220">
  <rect width="400" height="220" fill="#f0f4ff" rx="0"/>
  <circle cx="355" cy="50"  r="62" fill="#a0b8e8" opacity="0.25"/>
  <circle cx="48"  cy="178" r="50" fill="#c8d8f0" opacity="0.3"/>
  <rect x="100" y="40"  width="200" height="140" rx="14" fill="white" stroke="#a0b8e0" stroke-width="1.5"/>
  <rect x="100" y="40"  width="200" height="36"  rx="14" fill="#2d4080"/>
  <rect x="100" y="64"  width="200" height="12"  fill="#2d4080"/>
  <!-- Mini dashboard -->
  <rect x="114" y="92"  width="80"  height="50" rx="6" fill="#f0f4ff" stroke="#c8d8f0" stroke-width="1"/>
  <rect x="212" y="92"  width="74"  height="22" rx="6" fill="#f0f4ff" stroke="#c8d8f0" stroke-width="1"/>
  <rect x="212" y="120" width="74"  height="22" rx="6" fill="#f0f4ff" stroke="#c8d8f0" stroke-width="1"/>
  <!-- Bar chart inside left card -->
  <rect x="120" y="126" width="10" height="10" rx="2" fill="#2d4080" opacity="0.5"/>
  <rect x="134" y="120" width="10" height="16" rx="2" fill="#2d4080" opacity="0.7"/>
  <rect x="148" y="114" width="10" height="22" rx="2" fill="#2d4080"/>
  <rect x="162" y="118" width="10" height="18" rx="2" fill="#2d4080" opacity="0.65"/>
  <text x="118" y="106" font-family="Arial,sans-serif" font-size="7" fill="#2d4080" font-weight="600">Analytics</text>
  <rect x="219" y="102" width="55"  height="4" rx="2" fill="#c8d8f0"/>
  <rect x="219" y="130" width="40"  height="4" rx="2" fill="#c8d8f0"/>
  <!-- Bottom bar -->
  <rect x="114" y="150" width="172" height="18" rx="6" fill="#2d4080" opacity="0.1"/>
  <text x="200" y="163" font-family="Arial,sans-serif" font-size="9" fill="#2d4080" text-anchor="middle" font-weight="600">Dashboard</text>
  <circle cx="66"  cy="68" r="22" fill="#2d4080" opacity="0.1"/>
  <text x="66"  y="76" font-family="Arial,sans-serif" font-size="18" fill="#2d4080" text-anchor="middle">📊</text>
  <circle cx="334" cy="52"  r="22" fill="#c8d8f0" opacity="0.3"/>
  <text x="334" y="60" font-family="Arial,sans-serif" font-size="18" fill="#2d4080" text-anchor="middle">⚡</text>
</svg>
